<?xml version="1.0" encoding="utf-8"?>
<!-- Generator: Adobe Illustrator 27.9.1, SVG Export Plug-In . SVG Version: 6.00 Build 0)  -->
<svg version="1.1" id="Layer_1" xmlns="http://www.w3.org/2000/svg" xmlns:xlink="http://www.w3.org/1999/xlink" x="0px" y="0px"
	 viewBox="0 0 400 400" style="enable-background:new 0 0 400 400;" xml:space="preserve">
<style type="text/css">
	.st0{fill:#525352;}
</style>
<g>
	<g>
		<rect x="150.97" y="243.68" class="st0" width="17" height="62.87"/>
	</g>
	<g>
		<rect x="232.04" y="134" class="st0" width="17" height="62.87"/>
	</g>
	<g>
		<polygon class="st0" points="167.96,238.77 167.96,228.18 167.96,201.78 200,183.28 218.76,194.11 218.76,174.49 200,163.66 
			150.97,191.97 150.97,248.59 167.96,258.4 		"/>
		<polygon class="st0" points="232.04,182.15 232.04,201.78 232.04,213.97 232.04,238.77 200,257.27 181.24,246.44 181.24,266.07 
			200,276.9 249.03,248.59 249.03,191.97 		"/>
	</g>
	<g>
		<polygon class="st0" points="137.69,284.16 113.51,270.21 113.51,170.34 200,120.41 249.03,148.72 249.03,129.09 200,100.79 
			96.52,160.53 96.52,280.02 137.69,303.79 		"/>
		<polygon class="st0" points="286.49,150.72 286.49,170.34 286.49,187.81 286.49,270.21 200,320.14 150.97,291.83 150.97,311.46 
			200,339.77 303.48,280.02 303.48,160.53 		"/>
	</g>
	<polygon class="st0" points="286.49,165.44 303.48,165.44 303.48,101.48 286.49,91.67 	"/>
	<polygon class="st0" points="232.04,150.5 249.03,150.5 249.03,70.05 232.04,60.23 	"/>
</g>
</svg>
